<svg width="500" height="500" viewBox="0 0 500 500" fill="none" xmlns="http://www.w3.org/2000/svg">
<path fill-rule="evenodd" clip-rule="evenodd" d="M250 62.4999C215.483 62.4999 187.501 90.4822 187.501 125H312.5C312.5 90.4822 284.519 62.4999 250 62.4999ZM145.834 125C145.834 67.4703 192.471 20.8333 250 20.8333C307.531 20.8333 354.166 67.4703 354.166 125H340.502C349.571 125.001 357.498 125.027 364.148 125.542C371.602 126.118 378.998 127.391 386.285 130.756C396.814 135.617 405.783 143.311 412.187 152.978C416.623 159.67 419.004 166.785 420.708 174.065C422.31 180.911 423.591 189.241 425.064 198.816L434.46 259.898C438.475 285.985 441.696 306.914 442.804 323.894C443.939 341.287 443.06 356.752 437.371 371.294C428.785 393.233 413.014 411.614 392.635 423.437C379.127 431.273 363.977 434.492 346.614 436.014C329.664 437.5 308.487 437.5 282.096 437.5H217.906C191.514 437.5 170.337 437.5 153.388 436.014C136.024 434.492 120.874 431.273 107.367 423.437C86.9871 411.614 71.2169 393.233 62.6312 371.294C56.9408 356.752 56.0631 341.287 57.1985 323.894C58.3067 306.917 61.5269 285.985 65.5402 259.9L74.9379 198.816C76.4106 189.241 77.6917 180.911 79.2937 174.065C80.9975 166.785 83.3789 159.67 87.8135 152.978C94.2187 143.311 103.187 135.617 113.716 130.756C121.005 127.391 128.399 126.118 135.854 125.542C142.504 125.027 150.432 125.001 159.5 125H145.834ZM139.068 167.084C134.125 167.467 132.204 168.113 131.181 168.585C127.672 170.206 124.682 172.77 122.547 175.993C121.925 176.931 120.994 178.732 119.864 183.559C118.674 188.647 117.625 195.367 116.007 205.884L106.871 265.267C102.675 292.546 99.7519 311.669 98.7767 326.608C97.815 341.342 98.9527 349.771 101.433 356.108C106.584 369.273 116.046 380.302 128.274 387.396C134.161 390.81 142.32 393.217 157.028 394.506C171.942 395.814 191.287 395.833 218.887 395.833H281.114C308.714 395.833 328.06 395.814 342.973 394.506C357.681 393.217 365.841 390.81 371.727 387.396C383.956 380.302 393.416 369.273 398.569 356.108C401.05 349.771 402.187 341.342 401.225 326.608C400.25 311.669 397.327 292.546 393.131 265.267L383.994 205.884C382.377 195.367 381.327 188.647 380.137 183.559C379.008 178.732 378.077 176.931 377.454 175.993C375.319 172.77 372.329 170.206 368.821 168.585C367.798 168.113 365.877 167.467 360.933 167.084C355.725 166.681 348.923 166.667 338.283 166.667H161.72C151.079 166.667 144.278 166.681 139.068 167.084Z" fill="white"/>
</svg>
