<svg width="500" height="500" viewBox="0 0 500 500" fill="none" xmlns="http://www.w3.org/2000/svg">
<path d="M421.875 77.5H328.516V47.5312C328.516 21.6719 307.484 0.65625 281.641 0.65625H219.313C193.453 0.65625 172.438 21.6719 172.438 47.5312V77.5H78.1094C60.8594 77.5 46.8594 91.5 46.8594 108.75V468.109C46.8594 485.375 60.8594 499.359 78.1094 499.359H421.859C439.125 499.359 453.109 485.375 453.109 468.109V108.75C453.109 91.5 439.141 77.5 421.875 77.5ZM203.703 47.5312C203.703 38.9063 210.703 31.9062 219.328 31.9062H281.656C290.281 31.9062 297.281 38.9063 297.281 47.5312V77.5H203.703V47.5312ZM421.875 468.109H78.125V108.75H172.453V140.906C172.453 140.906 172.031 156.516 187.984 156.516C205.562 156.516 203.703 140.906 203.703 140.906V108.75H297.281V140.906C297.281 140.906 296.234 156.594 312.844 156.594C328.469 156.594 328.531 140.906 328.531 140.906V108.75H421.875V468.109Z" fill="white"/>
</svg>
