<svg width="500" height="500" viewBox="0 0 500 500" fill="none" xmlns="http://www.w3.org/2000/svg">
<path fill-rule="evenodd" clip-rule="evenodd" d="M250 62.4999C215.483 62.4999 187.501 90.4822 187.501 125H312.5C312.5 90.4822 284.519 62.4999 250 62.4999ZM145.834 125C145.834 67.4703 192.471 20.8333 250 20.8333C307.531 20.8333 354.167 67.4703 354.167 125H340.502C349.571 125.001 357.498 125.027 364.148 125.542C371.602 126.118 378.998 127.391 386.285 130.756C396.815 135.617 405.783 143.311 412.188 152.978C416.623 159.67 419.004 166.785 420.708 174.065C422.31 180.911 423.592 189.241 425.065 198.816L434.46 259.898C438.475 285.985 441.696 306.914 442.804 323.894C443.94 341.287 443.06 356.752 437.371 371.294C428.785 393.233 413.015 411.614 392.635 423.437C379.127 431.273 363.977 434.492 346.615 436.014C329.665 437.5 308.488 437.5 282.096 437.5H217.906C191.514 437.5 170.338 437.5 153.389 436.014C136.024 434.492 120.874 431.273 107.367 423.437C86.9873 411.614 71.2171 393.233 62.6315 371.294C56.9411 356.752 56.0634 341.287 57.1988 323.894C58.3069 306.917 61.5271 285.985 65.5404 259.9L74.9381 198.816C76.4109 189.241 77.6919 180.911 79.294 174.065C80.9977 166.785 83.3792 159.67 87.8138 152.978C94.219 143.311 103.188 135.617 113.716 130.756C121.005 127.391 128.399 126.118 135.854 125.542C142.505 125.027 150.432 125.001 159.5 125H145.834ZM139.068 167.084C134.125 167.467 132.204 168.113 131.181 168.585C127.672 170.206 124.683 172.77 122.548 175.993C121.926 176.931 120.994 178.732 119.865 183.559C118.674 188.647 117.626 195.367 116.008 205.884L106.872 265.267C102.675 292.546 99.7521 311.669 98.7769 326.608C97.8152 341.342 98.9529 349.771 101.433 356.108C106.584 369.273 116.046 380.302 128.274 387.396C134.161 390.81 142.32 393.217 157.028 394.506C171.942 395.814 191.288 395.833 218.888 395.833H281.115C308.715 395.833 328.06 395.814 342.973 394.506C357.681 393.217 365.842 390.81 371.727 387.396C383.956 380.302 393.417 369.273 398.569 356.108C401.05 349.771 402.188 341.342 401.225 326.608C400.25 311.669 397.327 292.546 393.131 265.267L383.994 205.884C382.377 195.367 381.327 188.647 380.138 183.559C379.008 178.732 378.077 176.931 377.454 175.993C375.319 172.77 372.329 170.206 368.821 168.585C367.798 168.113 365.877 167.467 360.933 167.084C355.725 166.681 348.923 166.667 338.283 166.667H161.72C151.079 166.667 144.278 166.681 139.068 167.084Z" fill="black"/>
</svg>
