<svg width="1078" height="1078" viewBox="0 0 1078 1078" fill="none" xmlns="http://www.w3.org/2000/svg">
<rect width="1078" height="1078" fill="white"/>
<path d="M366.625 645H351V715.312H366.625V645Z" fill="black"/>
<path d="M397.875 668.438H382.25V738.75H397.875V668.438Z" fill="black"/>
<path d="M397.875 754.375H382.25V770H397.875V754.375Z" fill="black"/>
<path d="M726 645H710.375V715.312H726V645Z" fill="black"/>
<path d="M694.75 668.438H679.125V738.75H694.75V668.438Z" fill="black"/>
<path d="M694.75 754.375H679.125V770H694.75V754.375Z" fill="black"/>
<path d="M1044.85 501.671C1048.7 499.114 1049.76 493.927 1047.18 490.052L958.994 369.621C942.451 344.759 908.752 337.98 883.88 354.525C883.712 354.636 880.405 356.733 878.608 358.088C861.244 369.643 835.872 362.985 824.436 345.807C821.872 341.954 816.671 340.917 812.817 343.475C809.957 345.377 808.649 348.733 809.209 351.91C809.403 353.011 809.822 354.092 810.485 355.094C827.033 379.955 861.799 389.423 886.861 372.753C887.033 372.637 891.08 369.852 893.152 368.478C910.334 357.062 933.607 361.73 945.034 378.91L1028.08 491.598C1021.35 494.191 1014.04 494.803 1006.83 493.313C996.838 491.241 988.184 485.358 982.456 476.745L949.944 427.868C947.381 424.015 942.184 422.977 938.33 425.535C934.476 428.094 933.415 433.279 935.993 437.155L965.32 481.236C949.232 487.678 930.244 482.214 920.268 467.225L888.69 419.743C886.126 415.89 880.929 414.852 877.071 417.411C874.22 419.311 872.903 422.668 873.463 425.846C873.657 426.946 874.076 428.027 874.739 429.03L900.278 467.428C884.097 473.775 865.171 468.376 855.267 453.481L836.688 425.549C834.125 421.696 828.923 420.659 825.07 423.217C822.219 425.118 820.902 428.475 821.462 431.653C821.656 432.753 822.075 433.834 822.738 434.836L841.316 462.767C856.42 485.467 885.922 492.942 910.02 481.4C926.131 500.534 953.482 506.098 975.778 494.848C983.335 502.348 992.848 507.528 1003.43 509.724C1017.85 512.712 1032.55 509.852 1044.85 501.671Z" fill="black"/>
<path d="M132.554 378.905C143.984 361.731 167.255 357.048 184.435 368.474C186.507 369.847 190.271 372.314 190.439 372.424C215.501 389.095 250.56 379.946 267.104 355.08C267.766 354.082 268.185 353.001 268.379 351.896C268.94 348.718 267.631 345.368 264.772 343.461C260.921 340.918 255.717 341.966 253.154 345.818C241.723 362.997 216.005 369.118 198.639 357.568C196.558 356.188 193.876 354.652 193.713 354.542C168.842 337.997 135.149 344.772 118.599 369.638L30.4148 490.08C29.1871 491.93 28.733 494.189 29.1742 496.369C29.6105 498.548 30.8987 500.461 32.7477 501.694C45.0404 509.873 59.7503 512.73 74.1591 509.74C84.746 507.545 94.2539 502.365 101.811 494.865C124.106 506.114 151.458 500.55 167.564 481.415C191.662 492.957 221.158 485.482 236.268 462.778L254.847 434.847C255.507 433.859 255.927 432.773 256.122 431.668C256.682 428.49 255.369 425.134 252.514 423.233C248.661 420.669 243.458 421.717 240.894 425.569L222.316 453.496C212.402 468.39 193.481 473.795 177.305 467.443L202.844 429.05C203.504 428.062 203.924 426.976 204.119 425.871C204.679 422.693 203.367 419.337 200.511 417.436C196.658 414.873 191.455 415.92 188.891 419.773L157.311 467.24C147.336 482.224 128.348 487.688 112.259 481.25L141.585 437.174C144.154 433.317 143.096 428.117 139.253 425.555C135.4 422.992 130.197 424.039 127.634 427.887L95.133 476.757C89.4067 485.364 80.7523 491.248 70.7537 493.324C63.5476 494.813 56.2309 494.202 49.5117 491.609L132.554 378.905Z" fill="black"/>
<path d="M689 540H714M464 540H614M389 540H364M364 465H714M364 390H714M289 535.005V395.005C289 367.002 289 352.991 294.45 342.295C299.243 332.887 306.887 325.243 316.295 320.45C326.99 315 341.002 315 369.005 315H709.005C737.007 315 750.99 315 761.685 320.45C771.093 325.243 778.762 332.887 783.555 342.295C789 352.98 789 366.975 789 394.923V535.078C789 563.025 789 577 783.555 587.685C778.762 597.093 771.093 604.763 761.685 609.555C751 615 737.025 615 709.078 615H368.923C340.975 615 326.98 615 316.295 609.555C306.887 604.763 299.243 597.093 294.45 587.685C289 576.99 289 563.008 289 535.005Z" stroke="black" stroke-width="16" stroke-linecap="round" stroke-linejoin="round"/>
</svg>
