<svg width="1024" height="463" viewBox="0 0 1024 463" fill="none" xmlns="http://www.w3.org/2000/svg">
<path d="M339.625 338H324V408.313H339.625V338Z" fill="black"/>
<path d="M370.875 361.438H355.25V431.75H370.875V361.438Z" fill="black"/>
<path d="M370.875 447.375H355.25V463H370.875V447.375Z" fill="black"/>
<path d="M699 338H683.375V408.313H699V338Z" fill="black"/>
<path d="M667.75 361.438H652.125V431.75H667.75V361.438Z" fill="black"/>
<path d="M667.75 447.375H652.125V463H667.75V447.375Z" fill="black"/>
<path d="M1017.85 194.671C1021.7 192.114 1022.76 186.927 1020.18 183.052L931.994 62.621C915.451 37.7595 881.752 30.9796 856.88 47.5249C856.712 47.6355 853.405 49.7329 851.608 51.088C834.244 62.6429 808.872 55.985 797.436 38.8071C794.872 34.9543 789.671 33.9166 785.817 36.4751C782.957 38.3772 781.649 41.7325 782.209 44.9104C782.403 46.0107 782.822 47.0916 783.485 48.0939C800.033 72.9546 834.799 82.423 859.861 65.753C860.033 65.6365 864.08 62.8516 866.152 61.4784C883.334 50.0621 906.607 54.73 918.034 71.9096L1001.08 184.598C994.354 187.191 987.037 187.803 979.831 186.313C969.838 184.241 961.184 178.358 955.456 169.745L922.944 120.868C920.381 117.015 915.184 115.977 911.33 118.535C907.476 121.094 906.415 126.279 908.993 130.155L938.32 174.236C922.232 180.678 903.244 175.214 893.268 160.225L861.69 112.743C859.126 108.89 853.929 107.852 850.071 110.411C847.22 112.311 845.903 115.668 846.463 118.846C846.657 119.946 847.076 121.027 847.739 122.03L873.278 160.428C857.097 166.775 838.171 161.376 828.267 146.481L809.688 118.549C807.125 114.696 801.923 113.659 798.07 116.217C795.219 118.118 793.902 121.475 794.462 124.653C794.656 125.753 795.075 126.834 795.738 127.836L814.316 155.767C829.42 178.467 858.922 185.942 883.02 174.4C899.131 193.534 926.482 199.098 948.778 187.848C956.335 195.348 965.848 200.528 976.429 202.724C990.848 205.712 1005.55 202.852 1017.85 194.671Z" fill="black"/>
<path d="M105.554 71.9054C116.984 54.7315 140.255 50.0481 157.435 61.4742C159.507 62.8474 163.271 65.314 163.439 65.4246C188.501 82.0947 223.56 72.9464 240.104 48.0799C240.766 47.0825 241.185 46.0016 241.379 44.8964C241.94 41.7185 240.631 38.3681 237.772 36.461C233.921 33.9182 228.717 34.9657 226.154 38.8185C214.723 55.9972 189.005 62.1181 171.639 50.5681C169.558 49.1882 166.876 47.6518 166.713 47.5421C141.842 30.9968 108.149 37.7726 91.5992 62.6382L3.41478 183.08C2.18713 184.93 1.73299 187.19 2.17418 189.369C2.61047 191.548 3.89873 193.461 5.7477 194.694C18.0404 202.873 32.7503 205.73 47.1591 202.74C57.746 200.546 67.2539 195.365 74.8107 187.865C97.1062 199.114 124.458 193.55 140.564 174.415C164.662 185.957 194.158 178.482 209.268 155.778L227.847 127.847C228.507 126.859 228.927 125.773 229.122 124.668C229.682 121.49 228.369 118.134 225.514 116.233C221.661 113.669 216.458 114.717 213.894 118.57L195.316 146.496C185.402 161.39 166.481 166.795 150.305 160.443L175.844 122.05C176.504 121.062 176.924 119.977 177.119 118.871C177.679 115.694 176.367 112.337 173.511 110.436C169.658 107.873 164.455 108.92 161.891 112.773L130.311 160.24C120.336 175.224 101.348 180.688 85.2588 174.25L114.585 130.174C117.154 126.317 116.096 121.117 112.253 118.555C108.4 115.992 103.197 117.04 100.634 120.888L68.133 169.757C62.4067 178.364 53.7523 184.248 43.7537 186.324C36.5476 187.813 29.2309 187.202 22.5117 184.609L105.554 71.9054Z" fill="black"/>
<path d="M662 233H687M437 233H587M362 233H337M337 158H687M337 83H687M262 228.005V88.005C262 60.0023 262 45.9905 267.45 35.295C272.243 25.8868 279.887 18.2432 289.295 13.4497C299.99 8 314.002 8 342.005 8H682.005C710.007 8 723.99 8 734.685 13.4497C744.093 18.2432 751.762 25.8868 756.555 35.295C762 45.98 762 59.9748 762 87.9228V228.078C762 256.025 762 270 756.555 280.685C751.762 290.093 744.093 297.763 734.685 302.555C724 308 710.025 308 682.078 308H341.923C313.975 308 299.98 308 289.295 302.555C279.887 297.763 272.243 290.093 267.45 280.685C262 269.99 262 256.008 262 228.005Z" stroke="black" stroke-width="16" stroke-linecap="round" stroke-linejoin="round"/>
</svg>
