<svg width="1046" height="479" viewBox="0 0 1046 479" fill="none" xmlns="http://www.w3.org/2000/svg">
<path d="M350.625 354H335V424.312H350.625V354Z" fill="white"/>
<path d="M381.875 377.438H366.25V447.75H381.875V377.438Z" fill="white"/>
<path d="M381.875 463.375H366.25V479H381.875V463.375Z" fill="white"/>
<path d="M710 354H694.375V424.312H710V354Z" fill="white"/>
<path d="M678.75 377.438H663.125V447.75H678.75V377.438Z" fill="white"/>
<path d="M678.75 463.375H663.125V479H678.75V463.375Z" fill="white"/>
<path d="M1039.85 210.671C1043.7 208.114 1044.76 202.927 1042.18 199.052L953.994 78.621C937.451 53.7595 903.752 46.9796 878.88 63.5249C878.712 63.6355 875.405 65.7329 873.608 67.088C856.244 78.6429 830.872 71.985 819.436 54.8071C816.872 50.9543 811.671 49.9166 807.817 52.4751C804.957 54.3772 803.649 57.7325 804.209 60.9104C804.403 62.0107 804.822 63.0916 805.485 64.0939C822.033 88.9546 856.799 98.423 881.861 81.753C882.033 81.6365 886.08 78.8516 888.152 77.4784C905.334 66.0621 928.607 70.73 940.034 87.9096L1023.08 200.598C1016.35 203.191 1009.04 203.803 1001.83 202.313C991.838 200.241 983.184 194.358 977.456 185.745L944.944 136.868C942.381 133.015 937.184 131.977 933.33 134.535C929.476 137.094 928.415 142.279 930.993 146.155L960.32 190.236C944.232 196.678 925.244 191.214 915.268 176.225L883.69 128.743C881.126 124.89 875.929 123.852 872.071 126.411C869.22 128.311 867.903 131.668 868.463 134.846C868.657 135.946 869.076 137.027 869.739 138.03L895.278 176.428C879.097 182.775 860.171 177.376 850.267 162.481L831.688 134.549C829.125 130.696 823.923 129.659 820.07 132.217C817.219 134.118 815.902 137.475 816.462 140.653C816.656 141.753 817.075 142.834 817.738 143.836L836.316 171.767C851.42 194.467 880.922 201.942 905.02 190.4C921.131 209.534 948.482 215.098 970.778 203.848C978.335 211.348 987.848 216.528 998.429 218.724C1012.85 221.712 1027.55 218.852 1039.85 210.671Z" fill="white"/>
<path d="M105.554 87.9052C116.984 70.7314 140.255 66.0479 157.435 77.4741C159.507 78.8473 163.271 81.3139 163.439 81.4245C188.501 98.0946 223.56 88.9463 240.104 64.0798C240.766 63.0823 241.185 62.0014 241.379 60.8963C241.94 57.7184 240.631 54.368 237.772 52.4609C233.921 49.9181 228.717 50.9656 226.154 54.8184C214.723 71.9971 189.005 78.118 171.639 66.568C169.558 65.1881 166.876 63.6517 166.713 63.5419C141.842 46.9966 108.149 53.7725 91.5992 78.6381L3.41478 199.08C2.18713 200.93 1.73299 203.189 2.17418 205.369C2.61047 207.548 3.89873 209.461 5.7477 210.694C18.0404 218.873 32.7503 221.73 47.1591 218.74C57.746 216.545 67.2539 211.365 74.8107 203.865C97.1062 215.114 124.458 209.55 140.564 190.415C164.662 201.957 194.158 194.482 209.268 171.778L227.847 143.847C228.507 142.859 228.927 141.773 229.122 140.668C229.682 137.49 228.369 134.134 225.514 132.233C221.661 129.669 216.458 130.717 213.894 134.569L195.316 162.496C185.402 177.39 166.481 182.795 150.305 176.443L175.844 138.05C176.504 137.062 176.924 135.976 177.119 134.871C177.679 131.693 176.367 128.337 173.511 126.436C169.658 123.873 164.455 124.92 161.891 128.773L130.311 176.24C120.336 191.224 101.348 196.688 85.2588 190.25L114.585 146.174C117.154 142.317 116.096 137.117 112.253 134.555C108.4 131.992 103.197 133.039 100.634 136.887L68.133 185.757C62.4067 194.364 53.7523 200.248 43.7537 202.324C36.5476 203.813 29.2309 203.202 22.5117 200.609L105.554 87.9052Z" fill="white"/>
<path d="M673 241H698M448 241H598M373 241H348M348 166H698M348 91H698M273 236.005V96.005C273 68.0023 273 53.9905 278.45 43.295C283.243 33.8868 290.887 26.2432 300.295 21.4497C310.991 16 325.002 16 353.005 16H693.005C721.007 16 734.99 16 745.685 21.4497C755.092 26.2432 762.762 33.8868 767.555 43.295C773 53.98 773 67.9747 773 95.9228V236.078C773 264.025 773 278 767.555 288.685C762.762 298.093 755.092 305.763 745.685 310.555C735 316 721.025 316 693.078 316H352.923C324.975 316 310.98 316 300.295 310.555C290.887 305.763 283.243 298.093 278.45 288.685C273 277.99 273 264.008 273 236.005Z" stroke="white" stroke-width="32" stroke-linecap="round" stroke-linejoin="round"/>
</svg>
